<?xml version="1.0" standalone="no"?>
<!DOCTYPE svg PUBLIC "-//W3C//DTD SVG 20010904//EN"
 "http://www.w3.org/TR/2001/REC-SVG-20010904/DTD/svg10.dtd">
<svg version="1.0" xmlns="http://www.w3.org/2000/svg"
 width="241.000000pt" height="241.000000pt" viewBox="0 0 241.000000 241.000000"
 preserveAspectRatio="xMidYMid meet">
<metadata>
Created by potrace 1.14, written by Peter Selinger 2001-2017
</metadata>
<g transform="translate(0.000000,241.000000) scale(0.100000,-0.100000)"
fill="#000000" stroke="none">
<path d="M0 1220 l0 -530 239 0 c149 0 242 4 246 10 8 13 17 12 -225 15 -113
1 -211 3 -217 4 -10 1 -13 109 -13 505 l0 504 1170 0 1170 0 0 -26 c1 -46 1
-874 0 -932 l0 -56 -225 1 c-175 0 -225 -2 -225 -12 0 -10 53 -13 240 -13 132
0 241 3 241 8 1 4 2 242 3 530 l1 522 -1202 0 -1203 0 0 -530z"/>
<path d="M1117 1497 c-77 -42 -91 -58 -61 -75 13 -7 9 -13 -22 -37 -36 -27
-36 -29 -31 -81 7 -64 26 -95 70 -110 41 -14 102 3 154 43 21 17 43 32 48 34
6 2 39 19 75 38 l64 33 -94 90 c-52 49 -102 94 -110 98 -11 6 -40 -5 -93 -33z
m182 -67 c45 -41 81 -77 81 -81 0 -3 -22 -18 -50 -33 -35 -19 -48 -23 -44 -12
3 8 14 18 25 21 15 5 10 14 -39 60 -31 29 -58 52 -60 50 -2 -2 14 -19 35 -39
23 -21 32 -36 23 -36 -8 0 -42 25 -75 54 -77 70 -93 62 -17 -9 31 -29 55 -56
52 -59 -3 -3 -33 19 -65 49 -80 73 -94 70 -20 -5 32 -33 56 -63 52 -67 -4 -4
-37 22 -72 57 -36 35 -61 67 -57 71 23 21 127 67 138 61 7 -4 49 -41 93 -82z
m-182 -62 c18 -18 33 -40 33 -50 0 -32 28 -32 65 1 66 57 94 33 40 -34 -86
-104 -208 -113 -230 -17 -15 71 -13 82 19 107 17 14 33 25 36 25 2 0 19 -14
37 -32z"/>
<path d="M1167 1489 c-17 -10 -17 -12 -2 -29 14 -15 21 -17 41 -8 29 14 30 24
5 38 -23 12 -21 12 -44 -1z"/>
<path d="M1266 1413 c69 -66 91 -79 34 -20 -30 31 -59 56 -64 57 -5 0 9 -17
30 -37z"/>
<path d="M192 1248 c3 -8 100 -11 369 -10 422 0 389 -1 389 12 0 6 -134 10
-381 10 -284 0 -380 -3 -377 -12z"/>
<path d="M1455 1250 c-8 -13 -43 -12 370 -12 425 0 395 -1 395 12 0 6 -133 10
-379 10 -243 0 -382 -4 -386 -10z"/>
<path d="M190 1203 c0 -10 77 -13 381 -13 300 0 380 3 377 13 -7 18 -758 19
-758 0z"/>
<path d="M1461 1212 c-6 -2 -9 -8 -5 -13 3 -5 166 -9 385 -9 301 0 379 3 379
13 0 10 -77 13 -374 13 -206 0 -379 -2 -385 -4z"/>
<path d="M187 1110 c-6 -22 -4 -23 88 -22 33 1 62 -3 65 -8 3 -5 5 -52 4 -104
-1 -63 3 -96 10 -97 6 0 19 -2 30 -4 37 -7 43 4 43 78 0 147 -4 136 51 133 67
-3 105 6 108 27 2 16 -14 17 -196 17 -189 0 -198 -1 -203 -20z"/>
<path d="M615 1010 c-47 -67 -83 -125 -81 -129 3 -5 22 -7 43 -5 26 2 43 10
56 28 18 25 22 26 125 26 104 0 107 -1 128 -27 17 -21 31 -28 63 -29 32 -1 41
2 37 12 -3 8 -42 66 -86 129 l-81 115 -59 0 -59 0 -86 -120z m209 -11 l15 -25
-79 -1 c-44 0 -80 2 -80 4 0 3 17 29 38 59 l37 54 27 -33 c15 -17 33 -44 42
-58z"/>
<path d="M1048 1008 c2 -76 7 -125 14 -129 6 -4 23 -6 37 -5 22 3 27 9 31 43
l5 39 109 -1 c147 -1 176 13 176 92 0 33 -5 46 -25 61 -23 18 -42 20 -188 22
l-162 1 3 -123z m282 66 c6 -6 10 -24 8 -40 -3 -27 -6 -29 -58 -34 -30 -3 -76
-3 -102 -2 l-48 4 0 43 0 42 95 -1 c55 -1 99 -6 105 -12z"/>
<path d="M1639 1085 c0 -25 0 -74 0 -110 0 -36 0 -73 0 -83 1 -14 9 -18 39
-17 l37 0 3 128 3 127 -41 0 -40 0 -1 -45z"/>
<path d="M1818 1007 c3 -108 5 -126 20 -129 9 -3 86 -4 170 -3 136 2 156 4
180 22 25 19 27 25 28 106 3 124 7 121 -220 125 l-181 4 3 -125z m312 63 c10
-17 8 -120 -3 -137 -6 -9 -41 -13 -118 -13 l-109 0 0 78 c0 43 2 81 5 83 2 3
52 5 110 4 80 -1 108 -4 115 -15z"/>
<path d="M587 743 c-4 -3 -7 -19 -7 -35 0 -27 3 -29 33 -26 27 2 32 7 32 28 0
14 -4 28 -10 32 -13 10 -40 10 -48 1z m43 -13 c0 -5 -9 -10 -20 -10 -11 0 -20
5 -20 10 0 6 9 10 20 10 11 0 20 -4 20 -10z m5 -30 c-3 -5 -15 -10 -26 -10
-10 0 -19 5 -19 10 0 6 12 10 26 10 14 0 23 -4 19 -10z"/>
<path d="M788 739 c-37 -21 -15 -61 30 -58 10 1 6 4 -8 8 -14 4 -25 13 -25 21
0 8 11 20 25 27 14 7 18 13 10 13 -8 -1 -23 -5 -32 -11z"/>
<path d="M1236 734 c-9 -8 -16 -17 -16 -19 0 -12 35 -35 53 -34 20 1 20 2 -3
8 -16 4 -25 14 -25 26 0 12 9 22 25 26 23 6 23 7 3 8 -12 1 -29 -6 -37 -15z"/>
<path d="M1620 716 c0 -20 4 -35 9 -32 4 3 7 17 5 32 -4 41 -14 41 -14 0z"/>
<path d="M980 715 c0 -15 -6 -25 -14 -25 -23 0 -28 18 -9 29 10 6 13 11 7 11
-17 0 -37 -27 -29 -40 7 -11 54 -14 56 -2 6 33 5 52 -2 52 -5 0 -9 -11 -9 -25z"/>
<path d="M672 710 c6 -14 11 -31 10 -37 -5 -23 7 -14 23 18 9 17 14 33 12 36
-3 2 -8 -5 -12 -16 l-6 -21 -20 22 -20 23 13 -25z"/>
<path d="M873 723 c-20 -7 -16 -43 5 -43 14 0 15 2 2 10 -11 7 -12 12 -3 21
14 14 36 2 29 -18 -3 -8 -1 -11 4 -8 15 9 12 32 -6 39 -9 3 -16 6 -17 5 -1 0
-8 -3 -14 -6z"/>
<path d="M1053 723 c-7 -2 -13 -14 -12 -26 0 -22 0 -22 9 1 5 12 16 22 24 22
8 0 17 -10 19 -22 5 -20 5 -20 4 2 -2 24 -20 34 -44 23z"/>
<path d="M1123 719 c-12 -12 -7 -39 8 -39 4 0 6 7 2 16 -3 9 0 20 8 25 8 5 9
9 4 9 -6 0 -16 -5 -22 -11z"/>
<path d="M1163 715 c4 -8 2 -17 -3 -20 -5 -3 -7 -12 -3 -21 8 -21 17 -9 19 26
1 17 -3 30 -8 30 -6 0 -8 -7 -5 -15z"/>
<path d="M1321 703 c1 -22 2 -23 6 -8 3 11 10 23 17 27 7 5 5 8 -6 8 -13 0
-18 -7 -17 -27z"/>
<path d="M1371 708 c-1 -24 3 -28 24 -28 21 0 25 4 24 28 -2 23 -2 24 -6 5 -2
-13 -11 -23 -18 -23 -7 0 -16 10 -18 23 -4 19 -4 18 -6 -5z"/>
<path d="M1445 719 c-4 -6 2 -13 14 -16 11 -3 18 -9 15 -14 -3 -5 0 -9 5 -9
20 0 11 22 -11 28 -21 5 -21 6 -2 13 16 6 16 8 2 8 -9 1 -20 -4 -23 -10z"/>
<path d="M1527 720 c15 -6 21 -15 17 -25 -3 -8 -1 -15 5 -15 6 0 11 9 11 19 0
18 -19 32 -43 30 -7 0 -2 -4 10 -9z"/>
<path d="M1574 715 c-8 -19 4 -35 24 -34 15 1 15 2 -1 6 -12 3 -16 10 -12 24
7 22 -3 26 -11 4z"/>
<path d="M1654 715 c-9 -21 9 -38 32 -32 16 4 15 5 -3 6 -29 1 -31 31 -2 31
11 0 17 -4 14 -10 -3 -5 -1 -10 5 -10 21 0 4 25 -18 28 -13 2 -25 -3 -28 -13z"/>
<path d="M1730 725 c-8 -45 -8 -47 2 -37 5 5 8 18 5 28 -3 11 -6 15 -7 9z"/>
<path d="M1798 723 c7 -3 16 -2 19 1 4 3 -2 6 -13 5 -11 0 -14 -3 -6 -6z"/>
<path d="M1010 700 c0 -11 2 -20 4 -20 2 0 6 9 9 20 3 11 1 20 -4 20 -5 0 -9
-9 -9 -20z"/>
<path d="M1770 710 c0 -6 9 -10 21 -10 11 0 17 -4 14 -10 -3 -5 -1 -10 5 -10
7 0 10 5 8 12 -5 14 -48 31 -48 18z"/>
<path d="M1505 701 c-6 -11 13 -26 22 -17 4 3 0 6 -8 6 -11 0 -11 2 1 10 9 6
10 10 3 10 -6 0 -14 -4 -18 -9z"/>
</g>
</svg>
